<svg width="12" height="12" viewBox="0 0 12 12" fill="none" xmlns="http://www.w3.org/2000/svg">
<path d="M9.1875 0H2.8125C1.2592 0 0 1.2592 0 2.8125V9.1875C0 10.7408 1.2592 12 2.8125 12H9.1875C10.7408 12 12 10.7408 12 9.1875V2.8125C12 1.2592 10.7408 0 9.1875 0Z" fill="#1185FE"/>
<path d="M3.73411 2.97119C4.65129 3.65546 5.63782 5.04289 6.00002 5.78747C6.36226 5.04295 7.34873 3.65545 8.26594 2.97119C8.92773 2.47744 10 2.09541 10 3.31106C10 3.55384 9.85993 5.35055 9.77778 5.64224C9.49222 6.65635 8.45166 6.91501 7.52607 6.75846C9.14399 7.03211 9.55557 7.93854 8.66671 8.84497C6.97858 10.5665 6.24038 8.41304 6.05114 7.86126C6.01646 7.7601 6.00024 7.71278 6 7.75302C5.99976 7.71278 5.98353 7.7601 5.94886 7.86126C5.7597 8.41304 5.02151 10.5665 3.33329 8.84497C2.44441 7.93854 2.85598 7.03205 4.47393 6.75846C3.54831 6.91501 2.50773 6.65635 2.22222 5.64224C2.14007 5.35052 2 3.55381 2 3.31106C2 2.09541 3.0723 2.47744 3.73406 2.97119H3.73411Z" fill="white"/>
</svg>
