<svg width="12" height="12" viewBox="0 0 12 12" fill="none" xmlns="http://www.w3.org/2000/svg">
<path d="M9.1875 0H2.8125C1.2592 0 0 1.2592 0 2.8125V9.1875C0 10.7408 1.2592 12 2.8125 12H9.1875C10.7408 12 12 10.7408 12 9.1875V2.8125C12 1.2592 10.7408 0 9.1875 0Z" fill="#F5C400"/>
<path d="M3.76558 4.58491C3.76558 4.58491 3.77225 5.53374 4.25945 6.51506C4.75998 7.45966 5.4501 8.06642 6.01943 8.30811C6.60769 8.03313 7.17595 7.55581 7.48609 7.04151H5.87117C5.4533 6.69521 5.12451 6.12068 5.04904 5.4566H9.7866C9.553 6.5243 9.05727 7.49532 8.58501 8.1137C7.92952 8.9711 7.0407 9.62548 6.0229 10H6.00797C4.30878 9.32298 3.39465 8.2566 2.79146 7.0534C2.40453 6.28234 2 4.88234 2 3H9.99997C10.0013 3.5301 9.96562 4.05967 9.89326 4.58491H3.76558Z" fill="#111820"/>
</svg>
