<svg width="12" height="12" viewBox="0 0 12 12" fill="none" xmlns="http://www.w3.org/2000/svg">
<g clip-path="url(#clip0_102_2)">
<path d="M9.1875 0H2.8125C1.2592 0 0 1.2592 0 2.8125V9.1875C0 10.7408 1.2592 12 2.8125 12H9.1875C10.7408 12 12 10.7408 12 9.1875V2.8125C12 1.2592 10.7408 0 9.1875 0Z" fill="#E73C00"/>
<path d="M10 5.45374V4.36121C10 3.05872 8.94128 2 7.63879 2C7.00356 2 6.42527 2.25267 6 2.6637C5.57473 2.25445 4.99644 2 4.36121 2C3.05872 2 2 3.0605 2 4.36121V7.63879C2 8.94128 3.05872 10 4.36121 10H7.63879C8.94128 10 10 8.94128 10 7.63879V6.0516H5.27758V7.49644H8.55516V7.63879C8.55516 8.14413 8.14413 8.55516 7.63879 8.55516H4.36121C3.85587 8.55516 3.44484 8.14413 3.44484 7.63879V4.36121C3.44484 3.85587 3.85587 3.44484 4.36121 3.44484C4.86655 3.44484 5.27758 3.85587 5.27758 4.36121V5.45374H6.72242V4.36121C6.72242 3.85587 7.13345 3.44484 7.63879 3.44484C8.14413 3.44484 8.55516 3.85587 8.55516 4.36121V5.45374H10Z" fill="white"/>
</g>
<defs>
<clipPath id="clip0_102_2">
<rect width="12" height="12" fill="white"/>
</clipPath>
</defs>
</svg>
